# Blender v2.79 (sub 0) OBJ File: ''
# www.blender.org
mtllib Border.mtl
o Box001
v -2460.629883 -0.000401 2460.629883
v 2460.629883 98.424599 2460.629883
v -2460.629883 98.424599 2460.629883
v 1586.875977 -0.000242 1485.235962
v 1586.875977 -0.000227 1390.944946
v 1586.875977 98.424759 1485.235962
v 45.112000 0.000266 -1632.972046
v -45.112000 0.000266 -1632.972046
v 45.112000 98.425270 -1632.972046
v -1586.875977 -0.000227 1390.944946
v -1586.875977 -0.000242 1485.235962
v -1586.875977 98.424774 1390.944946
v -45.112000 0.000401 -2460.629883
v -2460.629883 0.000401 -2460.629883
v -45.112000 98.425407 -2460.629883
v 45.112000 98.425407 -2460.629883
v 2460.629883 98.425407 -2460.629883
v 45.112000 0.000401 -2460.629883
v -45.112000 98.425270 -1632.972046
v -2460.629883 -0.000242 1485.235962
v -2460.629883 98.424759 1485.235962
v -1172.441040 98.424896 639.271973
v -1172.441040 98.424980 147.146011
v -1172.441040 -0.000104 639.271973
v -1586.875977 98.424759 1485.235962
v -2460.629883 98.424774 1390.927979
v 1172.441040 -0.000104 639.271973
v 1172.441040 -0.000024 147.145996
v 1172.441040 98.424896 639.271973
v 2460.629883 98.424759 1485.235962
v 2460.629883 -0.000242 1485.235962
v 2460.629883 -0.000227 1390.944946
v 1586.875977 98.424774 1390.944946
v 1172.441040 0.000035 -216.929001
v 1172.441040 0.000126 -770.570984
v 1172.441040 98.425041 -216.928986
v 2460.629883 98.424896 639.271973
v 2460.629883 98.424774 1390.944946
v 2460.629883 -0.000104 639.271973
v 2460.629883 -0.000024 147.145996
v 1172.441040 98.424980 147.146011
v 2460.629883 0.000126 -770.570984
v 2460.629883 0.000401 -2460.629883
v 2460.629883 98.425125 -770.570984
v 2460.629883 98.425041 -216.928986
v 1172.441040 98.425125 -770.570984
v -1172.441040 98.425041 -216.928986
v -1172.441040 98.425125 -770.570984
v -1172.441040 0.000035 -216.929001
v -2460.629883 -0.000104 639.271973
v -2460.629883 -0.000227 1390.927979
v -2460.629883 98.424896 639.271973
v -2460.629883 98.424980 147.146011
v -1172.441040 -0.000024 147.145996
v -2460.629883 98.425125 -770.570984
v -2460.629883 98.425407 -2460.629883
v -2460.629883 0.000126 -770.570984
v -2460.629883 0.000035 -216.929001
v -1172.441040 0.000126 -770.570984
v 2460.629883 -0.000401 2460.629883
v 2460.629883 98.424980 147.146011
v 2460.629883 0.000035 -216.929001
v -2460.629883 -0.000024 147.145996
v -2460.629883 98.425041 -216.928986
vt 1002.296997 0.000000
vt 1002.296997 39.369999
vt 1002.296997 0.000000
vt 966.206970 39.369999
vt 966.206970 0.000000
vt 966.206970 39.369999
vt 1608.957031 0.000000
vt 1608.957031 39.369999
vt 1608.957031 0.000000
vt 1572.866943 39.369999
vt 1572.866943 0.000000
vt 1572.866943 39.369999
vt 395.636993 0.000000
vt 395.635986 39.369999
vt 395.636993 0.000000
vt 359.546997 39.369999
vt 359.546997 0.000000
vt 359.546997 39.369999
vt 724.156006 39.369999
vt 724.156006 0.000000
vt 724.156006 39.369999
vt 752.992004 0.000000
vt 752.992004 39.369999
vt 752.992004 0.000000
vt 1006.872009 39.369999
vt 1006.872009 0.000000
vt 1006.872009 39.369999
vt 1029.156006 0.000000
vt 1029.156006 39.369999
vt 1029.156006 0.000000
vt 1244.348022 0.000000
vt 1244.348022 39.369999
vt 1244.348022 0.000000
vt 1215.511963 39.369999
vt 1215.511963 0.000000
vt 1215.511963 39.369999
vt 961.632019 0.000000
vt 961.632019 39.369999
vt 961.632019 0.000000
vt 939.348022 39.369999
vt 939.348022 0.000000
vt 939.348022 39.369999
vt 1002.296997 39.369999
vt 966.206970 0.000000
vt 1608.957031 39.369999
vt 1572.866943 0.000000
vt 395.635986 39.369999
vt 359.546997 0.000000
vt 724.156006 0.000000
vt 752.992004 39.369999
vt 1006.872009 0.000000
vt 1029.156006 39.369999
vt 1244.348022 39.369999
vt 1215.511963 0.000000
vt 961.632019 39.369999
vt 939.348022 0.000000
vt 0.000000 0.000000
vt 1968.504028 39.369999
vt 0.000000 39.369999
vt 1968.504028 0.000000
vt 0.000000 39.369999
vt 1968.504028 0.000000
vt 0.000000 39.369999
vt 1968.504028 0.000000
vt 0.000000 39.369999
vt 1968.504028 0.000000
vt 1968.504028 39.369999
vt 0.000000 0.000000
vt 1968.504028 39.369999
vt 0.000000 0.000000
vt 1968.504028 39.369999
vt 0.000000 0.000000
vn 1.0000 0.0000 0.0000
vn -1.0000 0.0000 0.0000
vn 0.0000 0.0000 -1.0000
vn -0.0000 0.0000 1.0000
usemtl wire_000000000
s off
f 13/1/1 19/2/1 8/3/1
f 16/4/2 7/5/2 9/6/2
f 20/7/3 25/8/3 11/9/3
f 26/10/4 10/11/4 12/12/4
f 32/13/4 33/14/4 5/15/4
f 30/16/3 4/17/3 6/18/3
f 37/19/3 27/20/3 29/21/3
f 40/22/4 41/23/4 28/24/4
f 45/25/3 34/26/3 36/27/3
f 42/28/4 46/29/4 35/30/4
f 50/31/3 22/32/3 24/33/3
f 53/34/4 54/35/4 23/36/4
f 58/37/3 47/38/3 49/39/3
f 55/40/4 59/41/4 48/42/4
f 13/1/1 15/43/1 19/2/1
f 16/4/2 18/44/2 7/5/2
f 20/7/3 21/45/3 25/8/3
f 26/10/4 51/46/4 10/11/4
f 32/13/4 38/47/4 33/14/4
f 30/16/3 31/48/3 4/17/3
f 37/19/3 39/49/3 27/20/3
f 40/22/4 61/50/4 41/23/4
f 45/25/3 62/51/3 34/26/3
f 42/28/4 44/52/4 46/29/4
f 50/31/3 52/53/3 22/32/3
f 53/34/4 63/54/4 54/35/4
f 58/37/3 64/55/3 47/38/3
f 55/40/4 57/56/4 59/41/4
s 1
f 1/57/4 2/58/4 3/59/4
f 4/17/1 5/15/1 6/18/1
f 7/5/3 8/3/3 9/6/3
f 10/11/2 11/9/2 12/12/2
f 13/1/3 14/60/3 15/43/3
f 16/4/3 17/61/3 18/44/3
f 20/7/2 1/62/2 21/45/2
f 22/32/2 23/36/2 24/33/2
f 27/20/1 28/24/1 29/21/1
f 30/16/1 2/63/1 31/48/1
f 34/26/1 35/30/1 36/27/1
f 37/19/1 38/47/1 39/49/1
f 42/28/1 43/64/1 44/52/1
f 47/38/2 48/42/2 49/39/2
f 50/31/2 51/46/2 52/53/2
f 55/40/2 56/65/2 57/56/2
f 1/57/4 60/66/4 2/58/4
f 5/15/1 33/14/1 6/18/1
f 8/3/3 19/2/3 9/6/3
f 11/9/2 25/8/2 12/12/2
f 14/60/3 56/67/3 15/43/3
f 17/61/3 43/68/3 18/44/3
f 1/62/2 3/69/2 21/45/2
f 23/36/2 54/35/2 24/33/2
f 28/24/1 41/23/1 29/21/1
f 2/63/1 60/70/1 31/48/1
f 35/30/1 46/29/1 36/27/1
f 38/47/1 32/13/1 39/49/1
f 43/64/1 17/71/1 44/52/1
f 48/42/2 59/41/2 49/39/2
f 51/46/2 26/10/2 52/53/2
f 56/65/2 14/72/2 57/56/2
