# Blender v2.79 (sub 0) OBJ File: ''
# www.blender.org
mtllib Lwall.mtl
o Box016
v 1270.865967 98.424759 1485.208008
v 1172.441040 98.424759 1485.208008
v 1270.865967 -0.000242 1485.208008
v 1172.441040 98.424850 942.981995
v 1172.441040 -0.000242 1485.208008
v 1270.865967 98.424850 942.981995
v 1172.441040 -0.000154 942.981995
v 2078.051025 98.424850 942.981995
v 2078.051025 -0.000170 1043.293945
v 2078.051025 -0.000154 942.981995
v 1270.865967 98.424835 1043.293945
v 1270.865967 -0.000170 1043.293945
v 2078.051025 98.424835 1043.293945
v 1270.865967 -0.000154 942.981995
vt 40.125000 0.000000
vt 40.125000 39.369999
vt 40.125000 0.000000
vt 0.000000 39.369999
vt 0.000000 0.000000
vt 0.000000 39.369999
vt 40.125000 39.369999
vt 0.000000 0.000000
vt 0.000000 39.369999
vt 39.369999 39.369999
vt 0.000000 0.000000
vt 0.000000 39.369999
vt 216.889999 39.369999
vt 0.000000 0.000000
vt 0.000000 39.369999
vt 39.369999 39.369999
vt 0.000000 0.000000
vt 216.889999 0.000000
vt 39.369999 0.000000
vt 216.889999 0.000000
vt 39.369999 0.000000
vt 216.889999 39.369999
vn 0.0000 0.0000 1.0000
vn 0.0000 0.0000 -1.0000
vn -1.0000 0.0000 0.0000
vn 1.0000 0.0000 0.0000
usemtl wire_000000000.005
s off
f 9/1/1 13/2/1 12/3/1
f 8/4/2 10/5/2 6/6/2
f 13/2/1 11/7/1 12/3/1
f 10/5/2 14/8/2 6/6/2
s 1
f 1/9/1 2/10/1 3/11/1
f 2/12/3 4/13/3 5/14/3
f 4/15/2 6/16/2 7/17/2
f 8/4/4 9/1/4 10/5/4
f 11/7/4 3/18/4 12/3/4
f 2/10/1 5/19/1 3/11/1
f 4/13/3 7/20/3 5/14/3
f 6/16/2 14/21/2 7/17/2
f 8/4/4 13/2/4 9/1/4
f 11/7/4 1/22/4 3/18/4
