# Blender v2.79 (sub 0) OBJ File: ''
# www.blender.org
mtllib Wall2.mtl
o Box012
v 345.373993 -0.000170 1040.823975
v 878.642029 98.424835 1040.823975
v 345.373993 98.424835 1040.823975
v 878.642029 -0.000170 1040.823975
v 878.642029 98.424850 942.398010
v 878.642029 -0.000154 942.398010
v 345.373993 98.424850 942.398010
v 345.373993 -0.000154 942.398010
vt 0.000000 0.000000
vt 213.307007 39.369999
vt 0.000000 39.369999
vt 0.000000 0.000000
vt 39.369999 39.369999
vt 0.000000 39.369999
vt 0.000000 0.000000
vt 213.307007 39.369999
vt 0.000000 39.369999
vt 0.000000 0.000000
vt 39.369999 39.369999
vt 0.000000 39.369999
vt 213.307007 0.000000
vt 39.369999 0.000000
vt 213.307007 0.000000
vt 39.369999 0.000000
vn 0.0000 0.0000 1.0000
vn 1.0000 0.0000 0.0000
vn 0.0000 0.0000 -1.0000
vn -1.0000 0.0000 0.0000
usemtl wire_000000000.010
s 1
f 1/1/1 2/2/1 3/3/1
f 4/4/2 5/5/2 2/6/2
f 6/7/3 7/8/3 5/9/3
f 8/10/4 3/11/4 7/12/4
f 1/1/1 4/13/1 2/2/1
f 4/4/2 6/14/2 5/5/2
f 6/7/3 8/15/3 7/8/3
f 8/10/4 1/16/4 3/11/4
