# Blender v2.79 (sub 0) OBJ File: ''
# www.blender.org
mtllib GhostSpawner.mtl
o Box002
v -492.126007 -0.000040 246.063004
v 492.126007 98.424965 246.063019
v -492.126007 98.424965 246.063019
v 492.126007 -0.000040 246.063004
v 492.126007 98.425041 -246.062988
v 492.126007 0.000040 -246.063004
v -492.126007 98.425041 -246.062988
v -492.126007 0.000040 -246.063004
vt 0.000000 0.000000
vt 393.700989 39.369999
vt 0.000000 39.369999
vt 0.000000 0.000000
vt 196.850006 39.369999
vt 0.000000 39.369999
vt 0.000000 0.000000
vt 393.700989 39.369999
vt 0.000000 39.369999
vt 0.000000 0.000000
vt 196.850006 39.369999
vt 0.000000 39.369999
vt 393.700989 0.000000
vt 196.850006 0.000000
vt 393.700989 0.000000
vt 196.850006 0.000000
vn -0.7071 0.0002 0.7071
vn 0.7071 -0.0002 0.7071
vn -0.7071 -0.0000 0.7071
vn 0.7071 0.0002 0.7071
vn 0.7071 -0.0002 -0.7071
vn 0.7071 -0.0000 0.7071
vn 0.7071 0.0002 -0.7071
vn -0.7071 -0.0002 -0.7071
vn 0.7071 -0.0000 -0.7071
vn -0.7071 0.0002 -0.7071
vn -0.7071 -0.0002 0.7071
vn -0.7071 -0.0000 -0.7071
usemtl wire_000000000
s 1
f 1/1/1 2/2/2 3/3/3
f 4/4/4 5/5/5 2/6/6
f 6/7/7 7/8/8 5/9/9
f 8/10/10 3/11/11 7/12/12
f 1/1/1 4/13/6 2/2/2
f 4/4/4 6/14/9 5/5/5
f 6/7/7 8/15/12 7/8/8
f 8/10/10 1/16/3 3/11/11
