# Blender v2.79 (sub 0) OBJ File: ''
# www.blender.org
mtllib Ibox.mtl
o Box021
v 303.286987 0.000266 -1632.972046
v 879.448975 130.964264 -1632.972046
v 303.286987 130.964264 -1632.972046
v 879.448975 0.000266 -1632.972046
v 879.448975 130.964340 -2079.822998
v 879.448975 0.000339 -2079.822998
v 303.286987 130.964340 -2079.822998
v 303.286987 0.000339 -2079.822998
vt 0.000000 0.000000
vt 226.425003 52.386002
vt 0.000000 52.386002
vt 0.000000 0.000000
vt 223.619995 52.386002
vt 0.000000 52.386002
vt 0.000000 0.000000
vt 226.425003 52.386002
vt 0.000000 52.386002
vt 0.000000 0.000000
vt 223.619995 52.386002
vt 0.000000 52.386002
vt 226.425003 0.000000
vt 223.619995 0.000000
vt 226.425003 0.000000
vt 223.619995 0.000000
vn 0.0000 0.0000 1.0000
vn 1.0000 0.0000 0.0000
vn 0.0000 0.0000 -1.0000
vn -1.0000 0.0000 0.0000
usemtl wire_000000000.014
s 1
f 1/1/1 2/2/1 3/3/1
f 4/4/2 5/5/2 2/6/2
f 6/7/3 7/8/3 5/9/3
f 8/10/4 3/11/4 7/12/4
f 1/1/1 4/13/1 2/2/1
f 4/4/2 6/14/2 5/5/2
f 6/7/3 8/15/3 7/8/3
f 8/10/4 1/16/4 3/11/4
