# Blender v2.79 (sub 0) OBJ File: ''
# www.blender.org
mtllib ILTwall.mtl
o Box014.002
v -404.822998 98.424690 1905.609985
v -2078.051025 98.424690 1905.609985
v -404.822998 -0.000310 1905.609985
v -2078.051025 98.424706 1807.185059
v -2078.051025 -0.000310 1905.609985
v -878.564026 98.424774 1405.217041
v -754.848999 -0.000229 1405.217041
v -878.565002 -0.000229 1405.217041
v -404.822998 98.424706 1807.185059
v -404.822998 -0.000294 1807.185059
v -754.848999 98.424706 1807.185059
v -754.848999 -0.000294 1807.185059
v -878.565002 -0.000294 1807.185059
v -878.564026 98.424706 1807.185059
v -754.848999 98.424774 1405.217041
v -2078.051025 -0.000294 1807.185059
vt 504.477997 0.000000
vt 504.477997 39.369999
vt 504.477997 0.000000
vt 420.816986 39.369999
vt 420.816986 0.000000
vt 420.816986 39.369999
vt 504.477997 39.369999
vt 420.816986 0.000000
vt 0.000000 39.369999
vt 669.291016 39.369999
vt 0.000000 0.000000
vt 0.000000 39.369999
vt 39.369999 39.369999
vt 0.000000 0.000000
vt 0.000000 39.369999
vt 39.369999 39.369999
vt 0.000000 0.000000
vt 669.291016 0.000000
vt 0.000000 39.369999
vt 669.291016 0.000000
vt 39.369999 0.000000
vt 39.369999 0.000000
vt 669.291016 39.369999
vt 0.000000 0.000000
vn 1.0000 0.0000 0.0000
vn -1.0000 0.0000 0.0000
vn 0.0000 0.0000 1.0000
vn 0.0000 0.0000 -1.0000
usemtl wire_000000000.007
s off
f 7/1/1 15/2/1 12/3/1
f 6/4/2 8/5/2 14/6/2
f 15/2/1 11/7/1 12/3/1
f 8/5/2 13/8/2 14/6/2
s 1
f 1/9/3 2/10/3 3/11/3
f 2/12/2 4/13/2 5/14/2
f 6/4/4 7/1/4 8/5/4
f 9/15/1 1/16/1 10/17/1
f 11/7/4 10/18/4 12/3/4
f 13/8/4 4/19/4 14/6/4
f 2/10/3 5/20/3 3/11/3
f 4/13/2 16/21/2 5/14/2
f 6/4/4 15/2/4 7/1/4
f 1/16/1 3/22/1 10/17/1
f 11/7/4 9/23/4 10/18/4
f 13/8/4 16/24/4 4/19/4
