# Blender v2.79 (sub 0) OBJ File: ''
# www.blender.org
mtllib ITwall.mtl
o Box007
v -61.515999 -0.000170 1041.266968
v 61.515999 -0.000170 1041.266968
v -61.515999 98.424835 1041.266968
v 492.126007 -0.000104 639.763977
v 492.126007 98.424911 541.338989
v 492.126007 98.424896 639.763977
v 492.126007 -0.000088 541.338989
v -492.126007 98.424911 541.338989
v -492.126007 -0.000088 541.338989
v -492.126007 98.424896 639.763977
v 61.515999 -0.000104 639.763977
v 61.515999 98.424896 639.763977
v -61.515999 98.424896 639.763977
v -61.515999 -0.000104 639.763977
v 61.515999 98.424835 1041.266968
v -492.126007 -0.000104 639.763977
vt 221.457001 0.000000
vt 221.457001 39.369999
vt 221.457001 0.000000
vt 172.244003 39.369999
vt 172.244003 0.000000
vt 172.244003 39.369999
vt 221.457001 39.369999
vt 172.244003 0.000000
vt 0.000000 0.000000
vt 39.369999 39.369999
vt 0.000000 39.369999
vt 0.000000 0.000000
vt 393.700989 39.369999
vt 0.000000 39.369999
vt 0.000000 0.000000
vt 39.369999 39.369999
vt 0.000000 39.369999
vt 393.700989 0.000000
vt 0.000000 39.369999
vt 39.369999 0.000000
vt 393.700989 0.000000
vt 39.369999 0.000000
vt 393.700989 39.369999
vt 0.000000 0.000000
vn 1.0000 0.0000 0.0000
vn -1.0000 0.0000 0.0000
vn 0.0000 0.0000 1.0000
vn 0.0000 0.0000 -1.0000
usemtl wire_000000000.021
s off
f 11/1/1 15/2/1 2/3/1
f 13/4/2 1/5/2 3/6/2
f 11/1/1 12/7/1 15/2/1
f 13/4/2 14/8/2 1/5/2
s 1
f 1/5/3 2/3/3 3/6/3
f 4/9/1 5/10/1 6/11/1
f 7/12/4 8/13/4 5/14/4
f 9/15/2 10/16/2 8/17/2
f 11/1/3 4/18/3 12/7/3
f 13/4/3 10/19/3 14/8/3
f 2/3/3 15/2/3 3/6/3
f 4/9/1 7/20/1 5/10/1
f 7/12/4 9/21/4 8/13/4
f 9/15/2 16/22/2 10/16/2
f 4/18/3 6/23/3 12/7/3
f 10/19/3 16/24/3 14/8/3
