# Blender v2.79 (sub 0) OBJ File: ''
# www.blender.org
mtllib Twall.mtl
o Box003
v -61.515999 0.000114 -696.867981
v 61.515999 0.000114 -696.867981
v -61.515999 98.425117 -696.867981
v 492.126007 0.000179 -1098.370972
v 492.126007 98.425201 -1196.796997
v 492.126007 98.425179 -1098.370972
v 492.126007 0.000195 -1196.796997
v -492.126007 98.425201 -1196.796997
v -492.126007 0.000195 -1196.796997
v -492.126007 98.425179 -1098.370972
v 61.515999 0.000179 -1098.370972
v 61.515999 98.425179 -1098.370972
v -61.515999 98.425179 -1098.370972
v -61.515999 0.000179 -1098.370972
v 61.515999 98.425117 -696.867981
v -492.126007 0.000179 -1098.370972
vt 221.457001 0.000000
vt 221.457001 39.369999
vt 221.457001 0.000000
vt 172.244003 39.369999
vt 172.244003 0.000000
vt 172.244003 39.369999
vt 221.457001 39.369999
vt 172.244003 0.000000
vt 0.000000 0.000000
vt 39.369999 39.369999
vt 0.000000 39.369999
vt 0.000000 0.000000
vt 393.700989 39.369999
vt 0.000000 39.369999
vt 0.000000 0.000000
vt 39.369999 39.369999
vt 0.000000 39.369999
vt 393.700989 0.000000
vt 0.000000 39.369999
vt 39.369999 0.000000
vt 393.700989 0.000000
vt 39.369999 0.000000
vt 393.700989 39.369999
vt 0.000000 0.000000
vn 0.7071 0.0000 0.7071
vn 0.7071 0.0002 0.7071
vn -0.7071 -0.0000 0.7071
vn -0.7071 -0.0002 0.7071
vn -0.7071 0.0002 0.7071
vn 0.7071 -0.0002 -0.7071
vn 0.7071 0.0002 -0.7071
vn -0.7071 -0.0002 -0.7071
vn 0.7071 -0.0000 -0.7071
vn -0.7071 0.0002 -0.7071
vn -0.7071 -0.0000 -0.7071
vn 0.7071 -0.0002 0.7071
usemtl wire_000000000.001
s off
f 11/1/1 15/2/1 2/3/2
f 13/4/3 1/5/3 3/6/4
f 11/1/1 12/7/1 15/2/1
f 13/4/3 14/8/3 1/5/3
s 1
f 1/5/5 2/3/1 3/6/3
f 4/9/2 5/10/6 6/11/1
f 7/12/7 8/13/8 5/14/9
f 9/15/10 10/16/4 8/17/11
f 11/1/1 4/18/1 12/7/1
f 13/4/3 10/19/3 14/8/3
f 2/3/1 15/2/12 3/6/3
f 4/9/2 7/20/9 5/10/6
f 7/12/7 9/21/11 8/13/8
f 9/15/10 16/22/3 10/16/4
f 4/18/1 6/23/12 12/7/1
f 10/19/3 16/24/5 14/8/3
